<mxfile host="Electron" modified="2024-03-01T23:50:55.201Z" agent="Mozilla/5.0 (Windows NT 10.0; Win64; x64) AppleWebKit/537.36 (KHTML, like Gecko) draw.io/21.6.5 Chrome/114.0.5735.243 Electron/25.3.1 Safari/537.36" etag="5xqnzoFL9uoyrXJ-TTcA" version="21.6.5" type="device">
  <diagram id="406LuOf64R7gfFMVLrTD" name="Страница 1">
    <mxGraphModel dx="1434" dy="820" grid="1" gridSize="10" guides="1" tooltips="1" connect="1" arrows="1" fold="1" page="1" pageScale="1" pageWidth="827" pageHeight="1169" math="0" shadow="0">
      <root>
        <mxCell id="0" />
        <mxCell id="1" parent="0" />
        <mxCell id="ntcRGj3Ns0rJooH1cPdj-4" value="" style="group" parent="1" vertex="1" connectable="0">
          <mxGeometry x="50.00298492558002" y="540.0036706844585" width="154.11403014883993" height="125.09265863108294" as="geometry" />
        </mxCell>
        <mxCell id="ntcRGj3Ns0rJooH1cPdj-1" value="" style="shape=parallelogram;perimeter=parallelogramPerimeter;whiteSpace=wrap;html=1;fixedSize=1;rotation=-25;" parent="ntcRGj3Ns0rJooH1cPdj-4" vertex="1">
          <mxGeometry x="7.057015074419979" y="22.54632931554147" width="120" height="60" as="geometry" />
        </mxCell>
        <mxCell id="ntcRGj3Ns0rJooH1cPdj-2" value="" style="shape=parallelogram;perimeter=parallelogramPerimeter;whiteSpace=wrap;html=1;fixedSize=1;rotation=-25;" parent="ntcRGj3Ns0rJooH1cPdj-4" vertex="1">
          <mxGeometry x="17.05701507441998" y="32.54632931554147" width="120" height="60" as="geometry" />
        </mxCell>
        <mxCell id="ntcRGj3Ns0rJooH1cPdj-3" value="" style="shape=parallelogram;perimeter=parallelogramPerimeter;whiteSpace=wrap;html=1;fixedSize=1;rotation=-25;" parent="ntcRGj3Ns0rJooH1cPdj-4" vertex="1">
          <mxGeometry x="27.05701507441998" y="42.54632931554147" width="120" height="60" as="geometry" />
        </mxCell>
        <mxCell id="ntcRGj3Ns0rJooH1cPdj-5" value="" style="group" parent="1" vertex="1" connectable="0">
          <mxGeometry x="40.00298492558002" y="200.00367068445854" width="154.11403014883993" height="125.09265863108294" as="geometry" />
        </mxCell>
        <mxCell id="ntcRGj3Ns0rJooH1cPdj-6" value="" style="shape=parallelogram;perimeter=parallelogramPerimeter;whiteSpace=wrap;html=1;fixedSize=1;rotation=-25;" parent="ntcRGj3Ns0rJooH1cPdj-5" vertex="1">
          <mxGeometry x="7.057015074419979" y="22.54632931554147" width="120" height="60" as="geometry" />
        </mxCell>
        <mxCell id="ntcRGj3Ns0rJooH1cPdj-7" value="" style="shape=parallelogram;perimeter=parallelogramPerimeter;whiteSpace=wrap;html=1;fixedSize=1;rotation=-25;" parent="ntcRGj3Ns0rJooH1cPdj-5" vertex="1">
          <mxGeometry x="17.05701507441998" y="32.54632931554147" width="120" height="60" as="geometry" />
        </mxCell>
        <mxCell id="ntcRGj3Ns0rJooH1cPdj-8" value="" style="shape=parallelogram;perimeter=parallelogramPerimeter;whiteSpace=wrap;html=1;fixedSize=1;rotation=-25;" parent="ntcRGj3Ns0rJooH1cPdj-5" vertex="1">
          <mxGeometry x="27.05701507441998" y="42.54632931554147" width="120" height="60" as="geometry" />
        </mxCell>
        <mxCell id="ntcRGj3Ns0rJooH1cPdj-9" value="CNN 1x8 (2x2)" style="text;html=1;align=center;verticalAlign=middle;resizable=0;points=[];autosize=1;strokeColor=none;fillColor=none;" parent="1" vertex="1">
          <mxGeometry x="72.06" y="325.1" width="90" height="20" as="geometry" />
        </mxCell>
        <mxCell id="ntcRGj3Ns0rJooH1cPdj-10" value="" style="group" parent="1" vertex="1" connectable="0">
          <mxGeometry x="230.00298492558002" y="520.0036706844585" width="154.11403014883993" height="125.09265863108294" as="geometry" />
        </mxCell>
        <mxCell id="ntcRGj3Ns0rJooH1cPdj-11" value="" style="shape=parallelogram;perimeter=parallelogramPerimeter;whiteSpace=wrap;html=1;fixedSize=1;rotation=-25;" parent="ntcRGj3Ns0rJooH1cPdj-10" vertex="1">
          <mxGeometry x="7.057015074419979" y="22.54632931554147" width="120" height="60" as="geometry" />
        </mxCell>
        <mxCell id="ntcRGj3Ns0rJooH1cPdj-12" value="" style="shape=parallelogram;perimeter=parallelogramPerimeter;whiteSpace=wrap;html=1;fixedSize=1;rotation=-25;" parent="ntcRGj3Ns0rJooH1cPdj-10" vertex="1">
          <mxGeometry x="17.05701507441998" y="32.54632931554147" width="120" height="60" as="geometry" />
        </mxCell>
        <mxCell id="ntcRGj3Ns0rJooH1cPdj-13" value="" style="shape=parallelogram;perimeter=parallelogramPerimeter;whiteSpace=wrap;html=1;fixedSize=1;rotation=-25;" parent="ntcRGj3Ns0rJooH1cPdj-10" vertex="1">
          <mxGeometry x="27.05701507441998" y="42.54632931554147" width="120" height="60" as="geometry" />
        </mxCell>
        <mxCell id="ntcRGj3Ns0rJooH1cPdj-14" value="CNN 1x8 (2x2)" style="text;html=1;align=center;verticalAlign=middle;resizable=0;points=[];autosize=1;strokeColor=none;fillColor=none;" parent="1" vertex="1">
          <mxGeometry x="262.06" y="645.1" width="90" height="20" as="geometry" />
        </mxCell>
        <mxCell id="ntcRGj3Ns0rJooH1cPdj-15" value="" style="group" parent="1" vertex="1" connectable="0">
          <mxGeometry x="220.00298492558002" y="200.00367068445854" width="154.11403014883993" height="125.09265863108294" as="geometry" />
        </mxCell>
        <mxCell id="ntcRGj3Ns0rJooH1cPdj-16" value="" style="shape=parallelogram;perimeter=parallelogramPerimeter;whiteSpace=wrap;html=1;fixedSize=1;rotation=-25;" parent="ntcRGj3Ns0rJooH1cPdj-15" vertex="1">
          <mxGeometry x="7.057015074419979" y="22.54632931554147" width="120" height="60" as="geometry" />
        </mxCell>
        <mxCell id="ntcRGj3Ns0rJooH1cPdj-17" value="" style="shape=parallelogram;perimeter=parallelogramPerimeter;whiteSpace=wrap;html=1;fixedSize=1;rotation=-25;" parent="ntcRGj3Ns0rJooH1cPdj-15" vertex="1">
          <mxGeometry x="17.05701507441998" y="32.54632931554147" width="120" height="60" as="geometry" />
        </mxCell>
        <mxCell id="ntcRGj3Ns0rJooH1cPdj-18" value="" style="shape=parallelogram;perimeter=parallelogramPerimeter;whiteSpace=wrap;html=1;fixedSize=1;rotation=-25;" parent="ntcRGj3Ns0rJooH1cPdj-15" vertex="1">
          <mxGeometry x="27.05701507441998" y="42.54632931554147" width="120" height="60" as="geometry" />
        </mxCell>
        <mxCell id="ntcRGj3Ns0rJooH1cPdj-19" value="CNN 1x8 (2x2)" style="text;html=1;align=center;verticalAlign=middle;resizable=0;points=[];autosize=1;strokeColor=none;fillColor=none;" parent="1" vertex="1">
          <mxGeometry x="252.06" y="325.1" width="90" height="20" as="geometry" />
        </mxCell>
        <mxCell id="ntcRGj3Ns0rJooH1cPdj-29" value="" style="group" parent="1" vertex="1" connectable="0">
          <mxGeometry x="400.00298492558" y="200.00367068445854" width="154.11403014883993" height="125.09265863108294" as="geometry" />
        </mxCell>
        <mxCell id="ntcRGj3Ns0rJooH1cPdj-30" value="" style="shape=parallelogram;perimeter=parallelogramPerimeter;whiteSpace=wrap;html=1;fixedSize=1;rotation=-25;" parent="ntcRGj3Ns0rJooH1cPdj-29" vertex="1">
          <mxGeometry x="7.057015074419979" y="22.54632931554147" width="120" height="60" as="geometry" />
        </mxCell>
        <mxCell id="ntcRGj3Ns0rJooH1cPdj-31" value="" style="shape=parallelogram;perimeter=parallelogramPerimeter;whiteSpace=wrap;html=1;fixedSize=1;rotation=-25;" parent="ntcRGj3Ns0rJooH1cPdj-29" vertex="1">
          <mxGeometry x="17.05701507441998" y="32.54632931554147" width="120" height="60" as="geometry" />
        </mxCell>
        <mxCell id="ntcRGj3Ns0rJooH1cPdj-32" value="" style="shape=parallelogram;perimeter=parallelogramPerimeter;whiteSpace=wrap;html=1;fixedSize=1;rotation=-25;" parent="ntcRGj3Ns0rJooH1cPdj-29" vertex="1">
          <mxGeometry x="27.05701507441998" y="42.54632931554147" width="120" height="60" as="geometry" />
        </mxCell>
        <mxCell id="ntcRGj3Ns0rJooH1cPdj-33" value="CNN 1x8 (2x2)" style="text;html=1;align=center;verticalAlign=middle;resizable=0;points=[];autosize=1;strokeColor=none;fillColor=none;" parent="1" vertex="1">
          <mxGeometry x="432.06" y="325.1" width="90" height="20" as="geometry" />
        </mxCell>
        <mxCell id="ntcRGj3Ns0rJooH1cPdj-53" value="" style="group" parent="1" vertex="1" connectable="0">
          <mxGeometry x="470" y="520" width="60" height="260" as="geometry" />
        </mxCell>
        <mxCell id="ntcRGj3Ns0rJooH1cPdj-54" value="" style="ellipse;whiteSpace=wrap;html=1;aspect=fixed;" parent="ntcRGj3Ns0rJooH1cPdj-53" vertex="1">
          <mxGeometry x="20" width="40" height="40" as="geometry" />
        </mxCell>
        <mxCell id="ntcRGj3Ns0rJooH1cPdj-55" value="" style="ellipse;whiteSpace=wrap;html=1;aspect=fixed;" parent="ntcRGj3Ns0rJooH1cPdj-53" vertex="1">
          <mxGeometry x="20" y="60" width="40" height="40" as="geometry" />
        </mxCell>
        <mxCell id="ntcRGj3Ns0rJooH1cPdj-56" value="" style="ellipse;whiteSpace=wrap;html=1;aspect=fixed;" parent="ntcRGj3Ns0rJooH1cPdj-53" vertex="1">
          <mxGeometry x="20" y="155.10000000000002" width="40" height="40" as="geometry" />
        </mxCell>
        <mxCell id="ntcRGj3Ns0rJooH1cPdj-57" value="" style="ellipse;whiteSpace=wrap;html=1;aspect=fixed;" parent="ntcRGj3Ns0rJooH1cPdj-53" vertex="1">
          <mxGeometry x="20" y="220" width="40" height="40" as="geometry" />
        </mxCell>
        <mxCell id="ntcRGj3Ns0rJooH1cPdj-58" value="" style="shape=waypoint;sketch=0;fillStyle=solid;size=6;pointerEvents=1;points=[];fillColor=none;resizable=0;rotatable=0;perimeter=centerPerimeter;snapToPoint=1;" parent="ntcRGj3Ns0rJooH1cPdj-53" vertex="1">
          <mxGeometry x="20" y="92.55000000000001" width="40" height="40" as="geometry" />
        </mxCell>
        <mxCell id="ntcRGj3Ns0rJooH1cPdj-59" value="" style="shape=waypoint;sketch=0;fillStyle=solid;size=6;pointerEvents=1;points=[];fillColor=none;resizable=0;rotatable=0;perimeter=centerPerimeter;snapToPoint=1;" parent="ntcRGj3Ns0rJooH1cPdj-53" vertex="1">
          <mxGeometry x="20" y="110" width="40" height="40" as="geometry" />
        </mxCell>
        <mxCell id="ntcRGj3Ns0rJooH1cPdj-60" value="" style="shape=waypoint;sketch=0;fillStyle=solid;size=6;pointerEvents=1;points=[];fillColor=none;resizable=0;rotatable=0;perimeter=centerPerimeter;snapToPoint=1;" parent="ntcRGj3Ns0rJooH1cPdj-53" vertex="1">
          <mxGeometry x="20" y="125.10000000000002" width="40" height="40" as="geometry" />
        </mxCell>
        <mxCell id="ntcRGj3Ns0rJooH1cPdj-61" value="" style="shape=curlyBracket;whiteSpace=wrap;html=1;rounded=1;" parent="ntcRGj3Ns0rJooH1cPdj-53" vertex="1">
          <mxGeometry width="20" height="260" as="geometry" />
        </mxCell>
        <mxCell id="ntcRGj3Ns0rJooH1cPdj-76" value="" style="group" parent="1" vertex="1" connectable="0">
          <mxGeometry x="630" y="510" width="180" height="320" as="geometry" />
        </mxCell>
        <mxCell id="ntcRGj3Ns0rJooH1cPdj-52" value="" style="group" parent="ntcRGj3Ns0rJooH1cPdj-76" vertex="1" connectable="0">
          <mxGeometry x="30" width="60" height="260" as="geometry" />
        </mxCell>
        <mxCell id="ntcRGj3Ns0rJooH1cPdj-34" value="" style="ellipse;whiteSpace=wrap;html=1;aspect=fixed;" parent="ntcRGj3Ns0rJooH1cPdj-52" vertex="1">
          <mxGeometry x="20" width="40" height="40" as="geometry" />
        </mxCell>
        <mxCell id="ntcRGj3Ns0rJooH1cPdj-35" value="" style="ellipse;whiteSpace=wrap;html=1;aspect=fixed;" parent="ntcRGj3Ns0rJooH1cPdj-52" vertex="1">
          <mxGeometry x="20" y="60" width="40" height="40" as="geometry" />
        </mxCell>
        <mxCell id="ntcRGj3Ns0rJooH1cPdj-37" value="" style="ellipse;whiteSpace=wrap;html=1;aspect=fixed;" parent="ntcRGj3Ns0rJooH1cPdj-52" vertex="1">
          <mxGeometry x="20" y="155.10000000000002" width="40" height="40" as="geometry" />
        </mxCell>
        <mxCell id="ntcRGj3Ns0rJooH1cPdj-38" value="" style="ellipse;whiteSpace=wrap;html=1;aspect=fixed;" parent="ntcRGj3Ns0rJooH1cPdj-52" vertex="1">
          <mxGeometry x="20" y="220" width="40" height="40" as="geometry" />
        </mxCell>
        <mxCell id="ntcRGj3Ns0rJooH1cPdj-39" value="" style="shape=waypoint;sketch=0;fillStyle=solid;size=6;pointerEvents=1;points=[];fillColor=none;resizable=0;rotatable=0;perimeter=centerPerimeter;snapToPoint=1;" parent="ntcRGj3Ns0rJooH1cPdj-52" vertex="1">
          <mxGeometry x="20" y="92.55000000000001" width="40" height="40" as="geometry" />
        </mxCell>
        <mxCell id="ntcRGj3Ns0rJooH1cPdj-40" value="" style="shape=waypoint;sketch=0;fillStyle=solid;size=6;pointerEvents=1;points=[];fillColor=none;resizable=0;rotatable=0;perimeter=centerPerimeter;snapToPoint=1;" parent="ntcRGj3Ns0rJooH1cPdj-52" vertex="1">
          <mxGeometry x="20" y="110" width="40" height="40" as="geometry" />
        </mxCell>
        <mxCell id="ntcRGj3Ns0rJooH1cPdj-41" value="" style="shape=waypoint;sketch=0;fillStyle=solid;size=6;pointerEvents=1;points=[];fillColor=none;resizable=0;rotatable=0;perimeter=centerPerimeter;snapToPoint=1;" parent="ntcRGj3Ns0rJooH1cPdj-52" vertex="1">
          <mxGeometry x="20" y="125.10000000000002" width="40" height="40" as="geometry" />
        </mxCell>
        <mxCell id="ntcRGj3Ns0rJooH1cPdj-43" value="" style="shape=curlyBracket;whiteSpace=wrap;html=1;rounded=1;" parent="ntcRGj3Ns0rJooH1cPdj-52" vertex="1">
          <mxGeometry width="20" height="260" as="geometry" />
        </mxCell>
        <mxCell id="ntcRGj3Ns0rJooH1cPdj-62" value="" style="group" parent="ntcRGj3Ns0rJooH1cPdj-76" vertex="1" connectable="0">
          <mxGeometry x="120" width="60" height="260" as="geometry" />
        </mxCell>
        <mxCell id="ntcRGj3Ns0rJooH1cPdj-63" value="" style="ellipse;whiteSpace=wrap;html=1;aspect=fixed;" parent="ntcRGj3Ns0rJooH1cPdj-62" vertex="1">
          <mxGeometry x="20" width="40" height="40" as="geometry" />
        </mxCell>
        <mxCell id="ntcRGj3Ns0rJooH1cPdj-64" value="" style="ellipse;whiteSpace=wrap;html=1;aspect=fixed;" parent="ntcRGj3Ns0rJooH1cPdj-62" vertex="1">
          <mxGeometry x="20" y="60" width="40" height="40" as="geometry" />
        </mxCell>
        <mxCell id="ntcRGj3Ns0rJooH1cPdj-65" value="" style="ellipse;whiteSpace=wrap;html=1;aspect=fixed;" parent="ntcRGj3Ns0rJooH1cPdj-62" vertex="1">
          <mxGeometry x="20" y="155.10000000000002" width="40" height="40" as="geometry" />
        </mxCell>
        <mxCell id="ntcRGj3Ns0rJooH1cPdj-66" value="" style="ellipse;whiteSpace=wrap;html=1;aspect=fixed;" parent="ntcRGj3Ns0rJooH1cPdj-62" vertex="1">
          <mxGeometry x="20" y="220" width="40" height="40" as="geometry" />
        </mxCell>
        <mxCell id="ntcRGj3Ns0rJooH1cPdj-67" value="" style="shape=waypoint;sketch=0;fillStyle=solid;size=6;pointerEvents=1;points=[];fillColor=none;resizable=0;rotatable=0;perimeter=centerPerimeter;snapToPoint=1;" parent="ntcRGj3Ns0rJooH1cPdj-62" vertex="1">
          <mxGeometry x="20" y="92.55000000000001" width="40" height="40" as="geometry" />
        </mxCell>
        <mxCell id="ntcRGj3Ns0rJooH1cPdj-68" value="" style="shape=waypoint;sketch=0;fillStyle=solid;size=6;pointerEvents=1;points=[];fillColor=none;resizable=0;rotatable=0;perimeter=centerPerimeter;snapToPoint=1;" parent="ntcRGj3Ns0rJooH1cPdj-62" vertex="1">
          <mxGeometry x="20" y="110" width="40" height="40" as="geometry" />
        </mxCell>
        <mxCell id="ntcRGj3Ns0rJooH1cPdj-69" value="" style="shape=waypoint;sketch=0;fillStyle=solid;size=6;pointerEvents=1;points=[];fillColor=none;resizable=0;rotatable=0;perimeter=centerPerimeter;snapToPoint=1;" parent="ntcRGj3Ns0rJooH1cPdj-62" vertex="1">
          <mxGeometry x="20" y="125.10000000000002" width="40" height="40" as="geometry" />
        </mxCell>
        <mxCell id="ntcRGj3Ns0rJooH1cPdj-70" value="" style="shape=curlyBracket;whiteSpace=wrap;html=1;rounded=1;" parent="ntcRGj3Ns0rJooH1cPdj-62" vertex="1">
          <mxGeometry width="20" height="260" as="geometry" />
        </mxCell>
        <mxCell id="ntcRGj3Ns0rJooH1cPdj-71" value="64" style="text;html=1;align=center;verticalAlign=middle;resizable=0;points=[];autosize=1;strokeColor=none;fillColor=none;" parent="ntcRGj3Ns0rJooH1cPdj-76" vertex="1">
          <mxGeometry y="120" width="30" height="20" as="geometry" />
        </mxCell>
        <mxCell id="ntcRGj3Ns0rJooH1cPdj-72" value="128" style="text;html=1;align=center;verticalAlign=middle;resizable=0;points=[];autosize=1;strokeColor=none;fillColor=none;" parent="ntcRGj3Ns0rJooH1cPdj-76" vertex="1">
          <mxGeometry x="80" y="120" width="40" height="20" as="geometry" />
        </mxCell>
        <mxCell id="ntcRGj3Ns0rJooH1cPdj-73" value="" style="shape=curlyBracket;whiteSpace=wrap;html=1;rounded=1;direction=north;" parent="ntcRGj3Ns0rJooH1cPdj-76" vertex="1">
          <mxGeometry x="40" y="280" width="140" height="20" as="geometry" />
        </mxCell>
        <mxCell id="ntcRGj3Ns0rJooH1cPdj-74" value="MLP 64x128" style="text;html=1;align=center;verticalAlign=middle;resizable=0;points=[];autosize=1;strokeColor=none;fillColor=none;" parent="ntcRGj3Ns0rJooH1cPdj-76" vertex="1">
          <mxGeometry x="70" y="300" width="80" height="20" as="geometry" />
        </mxCell>
        <mxCell id="ntcRGj3Ns0rJooH1cPdj-77" value="" style="group" parent="1" vertex="1" connectable="0">
          <mxGeometry x="590" y="160" width="180" height="320" as="geometry" />
        </mxCell>
        <mxCell id="ntcRGj3Ns0rJooH1cPdj-78" value="" style="group" parent="ntcRGj3Ns0rJooH1cPdj-77" vertex="1" connectable="0">
          <mxGeometry x="30" width="60" height="260" as="geometry" />
        </mxCell>
        <mxCell id="ntcRGj3Ns0rJooH1cPdj-79" value="" style="ellipse;whiteSpace=wrap;html=1;aspect=fixed;" parent="ntcRGj3Ns0rJooH1cPdj-78" vertex="1">
          <mxGeometry x="20" width="40" height="40" as="geometry" />
        </mxCell>
        <mxCell id="ntcRGj3Ns0rJooH1cPdj-80" value="" style="ellipse;whiteSpace=wrap;html=1;aspect=fixed;" parent="ntcRGj3Ns0rJooH1cPdj-78" vertex="1">
          <mxGeometry x="20" y="60" width="40" height="40" as="geometry" />
        </mxCell>
        <mxCell id="ntcRGj3Ns0rJooH1cPdj-81" value="" style="ellipse;whiteSpace=wrap;html=1;aspect=fixed;" parent="ntcRGj3Ns0rJooH1cPdj-78" vertex="1">
          <mxGeometry x="20" y="155.10000000000002" width="40" height="40" as="geometry" />
        </mxCell>
        <mxCell id="ntcRGj3Ns0rJooH1cPdj-82" value="" style="ellipse;whiteSpace=wrap;html=1;aspect=fixed;" parent="ntcRGj3Ns0rJooH1cPdj-78" vertex="1">
          <mxGeometry x="20" y="220" width="40" height="40" as="geometry" />
        </mxCell>
        <mxCell id="ntcRGj3Ns0rJooH1cPdj-83" value="" style="shape=waypoint;sketch=0;fillStyle=solid;size=6;pointerEvents=1;points=[];fillColor=none;resizable=0;rotatable=0;perimeter=centerPerimeter;snapToPoint=1;" parent="ntcRGj3Ns0rJooH1cPdj-78" vertex="1">
          <mxGeometry x="20" y="92.55000000000001" width="40" height="40" as="geometry" />
        </mxCell>
        <mxCell id="ntcRGj3Ns0rJooH1cPdj-84" value="" style="shape=waypoint;sketch=0;fillStyle=solid;size=6;pointerEvents=1;points=[];fillColor=none;resizable=0;rotatable=0;perimeter=centerPerimeter;snapToPoint=1;" parent="ntcRGj3Ns0rJooH1cPdj-78" vertex="1">
          <mxGeometry x="20" y="110" width="40" height="40" as="geometry" />
        </mxCell>
        <mxCell id="ntcRGj3Ns0rJooH1cPdj-85" value="" style="shape=waypoint;sketch=0;fillStyle=solid;size=6;pointerEvents=1;points=[];fillColor=none;resizable=0;rotatable=0;perimeter=centerPerimeter;snapToPoint=1;" parent="ntcRGj3Ns0rJooH1cPdj-78" vertex="1">
          <mxGeometry x="20" y="125.10000000000002" width="40" height="40" as="geometry" />
        </mxCell>
        <mxCell id="ntcRGj3Ns0rJooH1cPdj-86" value="" style="shape=curlyBracket;whiteSpace=wrap;html=1;rounded=1;" parent="ntcRGj3Ns0rJooH1cPdj-78" vertex="1">
          <mxGeometry width="20" height="260" as="geometry" />
        </mxCell>
        <mxCell id="ntcRGj3Ns0rJooH1cPdj-87" value="" style="group" parent="ntcRGj3Ns0rJooH1cPdj-77" vertex="1" connectable="0">
          <mxGeometry x="120" width="60" height="260" as="geometry" />
        </mxCell>
        <mxCell id="ntcRGj3Ns0rJooH1cPdj-88" value="" style="ellipse;whiteSpace=wrap;html=1;aspect=fixed;" parent="ntcRGj3Ns0rJooH1cPdj-87" vertex="1">
          <mxGeometry x="20" width="40" height="40" as="geometry" />
        </mxCell>
        <mxCell id="ntcRGj3Ns0rJooH1cPdj-89" value="" style="ellipse;whiteSpace=wrap;html=1;aspect=fixed;" parent="ntcRGj3Ns0rJooH1cPdj-87" vertex="1">
          <mxGeometry x="20" y="60" width="40" height="40" as="geometry" />
        </mxCell>
        <mxCell id="ntcRGj3Ns0rJooH1cPdj-90" value="" style="ellipse;whiteSpace=wrap;html=1;aspect=fixed;" parent="ntcRGj3Ns0rJooH1cPdj-87" vertex="1">
          <mxGeometry x="20" y="155.10000000000002" width="40" height="40" as="geometry" />
        </mxCell>
        <mxCell id="ntcRGj3Ns0rJooH1cPdj-91" value="" style="ellipse;whiteSpace=wrap;html=1;aspect=fixed;" parent="ntcRGj3Ns0rJooH1cPdj-87" vertex="1">
          <mxGeometry x="20" y="220" width="40" height="40" as="geometry" />
        </mxCell>
        <mxCell id="ntcRGj3Ns0rJooH1cPdj-92" value="" style="shape=waypoint;sketch=0;fillStyle=solid;size=6;pointerEvents=1;points=[];fillColor=none;resizable=0;rotatable=0;perimeter=centerPerimeter;snapToPoint=1;" parent="ntcRGj3Ns0rJooH1cPdj-87" vertex="1">
          <mxGeometry x="20" y="92.55000000000001" width="40" height="40" as="geometry" />
        </mxCell>
        <mxCell id="ntcRGj3Ns0rJooH1cPdj-93" value="" style="shape=waypoint;sketch=0;fillStyle=solid;size=6;pointerEvents=1;points=[];fillColor=none;resizable=0;rotatable=0;perimeter=centerPerimeter;snapToPoint=1;" parent="ntcRGj3Ns0rJooH1cPdj-87" vertex="1">
          <mxGeometry x="20" y="110" width="40" height="40" as="geometry" />
        </mxCell>
        <mxCell id="ntcRGj3Ns0rJooH1cPdj-94" value="" style="shape=waypoint;sketch=0;fillStyle=solid;size=6;pointerEvents=1;points=[];fillColor=none;resizable=0;rotatable=0;perimeter=centerPerimeter;snapToPoint=1;" parent="ntcRGj3Ns0rJooH1cPdj-87" vertex="1">
          <mxGeometry x="20" y="125.10000000000002" width="40" height="40" as="geometry" />
        </mxCell>
        <mxCell id="ntcRGj3Ns0rJooH1cPdj-95" value="" style="shape=curlyBracket;whiteSpace=wrap;html=1;rounded=1;" parent="ntcRGj3Ns0rJooH1cPdj-87" vertex="1">
          <mxGeometry width="20" height="260" as="geometry" />
        </mxCell>
        <mxCell id="ntcRGj3Ns0rJooH1cPdj-96" value="64" style="text;html=1;align=center;verticalAlign=middle;resizable=0;points=[];autosize=1;strokeColor=none;fillColor=none;" parent="ntcRGj3Ns0rJooH1cPdj-77" vertex="1">
          <mxGeometry y="120" width="30" height="20" as="geometry" />
        </mxCell>
        <mxCell id="ntcRGj3Ns0rJooH1cPdj-97" value="128" style="text;html=1;align=center;verticalAlign=middle;resizable=0;points=[];autosize=1;strokeColor=none;fillColor=none;" parent="ntcRGj3Ns0rJooH1cPdj-77" vertex="1">
          <mxGeometry x="80" y="120" width="40" height="20" as="geometry" />
        </mxCell>
        <mxCell id="ntcRGj3Ns0rJooH1cPdj-98" value="" style="shape=curlyBracket;whiteSpace=wrap;html=1;rounded=1;direction=north;" parent="ntcRGj3Ns0rJooH1cPdj-77" vertex="1">
          <mxGeometry x="40" y="280" width="140" height="20" as="geometry" />
        </mxCell>
        <mxCell id="ntcRGj3Ns0rJooH1cPdj-99" value="MLP 64x128" style="text;html=1;align=center;verticalAlign=middle;resizable=0;points=[];autosize=1;strokeColor=none;fillColor=none;" parent="ntcRGj3Ns0rJooH1cPdj-77" vertex="1">
          <mxGeometry x="70" y="300" width="80" height="20" as="geometry" />
        </mxCell>
      </root>
    </mxGraphModel>
  </diagram>
</mxfile>
